<?xml version="1.0" standalone="no"?>
<!DOCTYPE svg PUBLIC "-//W3C//DTD SVG 20010904//EN"
 "http://www.w3.org/TR/2001/REC-SVG-20010904/DTD/svg10.dtd">
<svg version="1.0" xmlns="http://www.w3.org/2000/svg"
 width="186.000000pt" height="186.000000pt" viewBox="0 0 186.000000 186.000000"
 preserveAspectRatio="xMidYMid meet">
<metadata>
Created by potrace 1.14, written by Peter Selinger 2001-2017
</metadata>
<g transform="translate(0.000000,186.000000) scale(0.100000,-0.100000)"
fill="#000000" stroke="none">
<path d="M490 1820 l0 -40 -40 0 -40 0 0 -40 0 -40 -40 0 -40 0 0 -40 0 -40
-40 0 -40 0 0 -40 0 -40 -40 0 -40 0 0 -80 0 -80 -40 0 -40 0 0 -160 0 -160
-40 0 -40 0 0 -40 0 -40 40 0 40 0 0 -40 0 -40 -40 0 -40 0 0 -40 0 -40 40 0
40 0 0 -40 0 -40 40 0 40 0 0 -40 0 -40 40 0 40 0 0 -40 0 -40 40 0 40 0 0
-40 0 -40 80 0 80 0 0 -80 0 -80 -40 0 -40 0 0 -120 0 -120 40 0 40 0 0 -40 0
-40 -40 0 c-22 0 -40 -4 -40 -10 0 -5 18 -10 40 -10 22 0 40 5 40 10 0 6 18
10 40 10 l40 0 0 40 0 40 40 0 40 0 0 40 0 40 40 0 40 0 0 40 0 40 80 0 80 0
0 -40 0 -40 40 0 40 0 0 -40 0 -40 40 0 40 0 0 -40 0 -40 40 0 40 0 0 40 0 40
40 0 40 0 0 40 0 40 40 0 40 0 0 -40 0 -40 40 0 40 0 0 -50 0 -50 40 0 40 0 0
50 0 50 -40 0 -40 0 0 40 0 40 -40 0 -40 0 0 40 0 40 -40 0 -40 0 0 40 0 40
40 0 40 0 0 40 0 40 120 0 120 0 0 40 0 40 40 0 40 0 0 -120 0 -120 -40 0 -40
0 0 -80 0 -80 40 0 40 0 0 -40 0 -40 -40 0 c-22 0 -40 -4 -40 -10 0 -5 18 -10
40 -10 22 0 40 5 40 10 0 6 18 10 40 10 l40 0 0 40 0 40 40 0 40 0 0 80 0 80
40 0 40 0 0 240 0 240 -40 0 -40 0 0 40 0 40 -40 0 -40 0 0 160 0 160 -40 0
-40 0 0 -160 0 -160 40 0 40 0 0 -40 0 -40 40 0 40 0 0 -40 0 -40 -40 0 -40 0
0 -40 0 -40 -80 0 -80 0 0 -40 0 -40 -120 0 -120 0 0 -40 0 -40 -200 0 -200 0
0 40 0 40 -80 0 -80 0 0 120 0 120 -40 0 -40 0 0 240 0 240 -40 0 -40 0 0
-240 0 -240 40 0 40 0 0 -200 0 -200 -40 0 -40 0 0 160 0 160 -40 0 -40 0 0
160 0 160 -40 0 -40 0 0 -160 0 -160 40 0 40 0 0 -40 0 -40 -80 0 -80 0 0 40
0 40 -40 0 -40 0 0 40 0 40 -40 0 -40 0 0 40 0 40 -40 0 -40 0 0 40 0 40 40 0
40 0 0 40 0 40 -40 0 -40 0 0 40 0 40 40 0 40 0 0 160 0 160 40 0 40 0 0 80 0
80 40 0 40 0 0 40 0 40 40 0 40 0 0 40 0 40 40 0 40 0 0 40 0 40 200 0 200 0
0 -40 0 -40 40 0 40 0 0 40 0 40 160 0 161 0 -3 -57 c-3 -51 -6 -58 -25 -61
-22 -3 -23 -7 -23 -123 l0 -119 25 0 25 0 0 -140 0 -140 40 0 40 0 0 80 c0 73
2 80 20 80 15 0 20 -7 20 -25 0 -18 5 -25 20 -25 19 0 20 -7 20 -95 l0 -95 40
0 40 0 0 95 0 95 65 0 c63 0 65 1 65 25 0 16 6 25 15 25 11 0 15 -11 15 -40
l0 -40 40 0 40 0 0 -120 0 -120 40 0 40 0 0 120 0 120 -40 0 -40 0 0 40 c0 29
-4 40 -15 40 -8 0 -15 9 -15 20 0 13 7 20 20 20 17 0 20 7 20 40 0 36 3 40 25
40 l25 0 0 119 c0 116 -1 120 -22 123 -19 2 -24 10 -26 46 -3 34 -7 42 -23 42
-12 0 -19 7 -19 20 0 17 -7 20 -40 20 -33 0 -40 3 -40 20 0 19 -7 20 -125 20
-118 0 -125 -1 -125 -20 0 -15 -7 -20 -29 -20 -16 0 -43 -3 -60 -6 -31 -6 -31
-6 -31 35 l0 41 -160 0 -160 0 0 -40 0 -40 -40 0 -40 0 0 40 0 40 -200 0 -200
0 0 -40z m1170 -129 c0 -13 8 -21 23 -23 19 -3 22 -9 22 -43 0 -34 -3 -40 -22
-43 -21 -3 -23 1 -23 37 0 40 0 40 -42 43 -36 2 -44 7 -46 26 -3 20 1 22 42
22 39 0 46 -3 46 -19z m110 -1271 l0 -160 -40 0 -40 0 0 -80 0 -80 -40 0 -40
0 0 80 0 80 40 0 40 0 0 160 0 160 40 0 40 0 0 -160z m-960 -40 l0 -40 -40 0
-40 0 0 -40 0 -40 -40 0 -40 0 0 40 0 40 40 0 40 0 0 40 0 40 40 0 40 0 0 -40z
m-240 -160 l0 -120 -40 0 -40 0 0 120 0 120 40 0 40 0 0 -120z m480 80 l0 -40
40 0 40 0 0 -80 0 -80 -40 0 -40 0 0 40 0 40 -40 0 -40 0 0 40 0 40 -40 0 -40
0 0 40 0 40 80 0 80 0 0 -40z"/>
<path d="M970 1180 l0 -120 40 0 40 0 0 120 0 120 -40 0 -40 0 0 -120z"/>
<path d="M810 1140 l0 -80 40 0 40 0 0 80 0 80 -40 0 -40 0 0 -80z"/>
<path d="M1130 1100 l0 -120 40 0 40 0 0 120 0 120 -40 0 -40 0 0 -120z"/>
<path d="M1370 860 l0 -120 40 0 40 0 0 120 0 120 -40 0 -40 0 0 -120z"/>
<path d="M970 780 l0 -120 40 0 40 0 0 120 0 120 -40 0 -40 0 0 -120z"/>
</g>
</svg>
